<svg version="1.0" xmlns="http://www.w3.org/2000/svg"
 width="16.000000pt" height="16.000000pt" viewBox="0 0 16.000000 16.000000"
 preserveAspectRatio="xMidYMid meet">
  <defs>
    <style>
      .cls-1 {
        fill: url(#linear-gradient);
      }

      .cls-2 {
        fill: #197b6c;
        fill-rule: evenodd;
        filter: url(#filter);
      }
    </style>
    <linearGradient id="linear-gradient" x1="8" y1="16" x2="8" gradientUnits="userSpaceOnUse">
      <stop offset="0" stop-color="#b3b3b3"/>
      <stop offset="1" stop-color="#f1f1f1"/>
    </linearGradient>
    <filter id="filter" x="-6" y="0" width="29" height="27" filterUnits="userSpaceOnUse">
      <feOffset result="offset" dy="5" in="SourceAlpha"/>
      <feGaussianBlur result="blur" stdDeviation="3.162"/>
      <feFlood result="flood"/>
      <feComposite result="composite" operator="in" in2="blur"/>
      <feBlend result="blend" in="SourceGraphic"/>
    </filter>
  </defs>
  <rect class="cls-1" width="16" height="16" rx="3" ry="3"/>
  <path class="cls-2" d="M12.968,5.638L8.182,10.272,6.967,11.44h0a0.459,0.459,0,0,1-.625-0.062L3.132,7.717a0.462,0.462,0,0,1-.042-0.555L3.08,7.148l0.046-.04h0l0.041-.036,0,0,0.253-.223,0,0L3.5,6.785h0L3.68,6.624,3.7,6.6l0.093-.082a0.459,0.459,0,0,1,.532.018l2.624,2,4.82-4.056a0.46,0.46,0,0,1,.472.053L12.6,4.9l0.3,0.316A0.457,0.457,0,0,1,12.968,5.638Z"/>
</svg>
